<?xml version="1.0" encoding="UTF-8" standalone="no"?>
<!DOCTYPE svg PUBLIC "-//W3C//DTD SVG 1.1//EN" "http://www.w3.org/Graphics/SVG/1.1/DTD/svg11.dtd">
<svg shape-rendering="auto" width="100%" height="100%" viewBox="0 0 129 129" version="1.1" xmlns="http://www.w3.org/2000/svg" xmlns:xlink="http://www.w3.org/1999/xlink" xml:space="preserve" xmlns:serif="http://www.serif.com/" style="fill-rule:evenodd;clip-rule:evenodd;stroke-linejoin:round;stroke-miterlimit:2;">
    <g transform="matrix(1,0,0,1,304.408,-3167.47)">
        <g transform="matrix(4.16667,0,0,4.16667,-179.15,3219.71)">
            <path d="M0,5.127C-1.267,13.228 -8.887,18.788 -16.989,17.523C-20.907,16.909 -24.355,14.803 -26.699,11.591C-29.043,8.378 -29.997,4.451 -29.385,0.533C-28.118,-7.567 -20.497,-13.128 -12.396,-11.862C-8.478,-11.25 -5.029,-9.144 -2.686,-5.931C-0.342,-2.719 0.612,1.209 0,5.127M-2.284,-6.224C-4.706,-9.543 -8.271,-11.72 -12.319,-12.352C-20.69,-13.661 -28.566,-7.915 -29.875,0.457C-30.508,4.506 -29.522,8.564 -27.101,11.883C-24.679,15.203 -21.114,17.38 -17.065,18.013C-16.265,18.138 -15.47,18.198 -14.684,18.198C-7.248,18.198 -0.693,12.774 0.49,5.203C1.123,1.154 0.138,-2.903 -2.284,-6.224" style="fill:rgb(249,246,233);fill-rule:nonzero;"/>
        </g>
        <g transform="matrix(4.16667,0,0,4.16667,-183.431,3224.23)">
            <path d="M0,3.88C-1.178,11.415 -8.266,16.587 -15.801,15.409C-23.336,14.232 -28.508,7.143 -27.33,-0.391C-26.76,-4.042 -24.802,-7.252 -21.817,-9.429C-19.425,-11.175 -16.602,-12.09 -13.694,-12.09C-12.977,-12.09 -12.252,-12.034 -11.529,-11.921C-3.994,-10.743 1.178,-3.655 0,3.88M-11.497,-12.127C-15.202,-12.707 -18.911,-11.808 -21.94,-9.598C-24.97,-7.388 -26.957,-4.13 -27.536,-0.424C-28.732,7.225 -23.482,14.42 -15.833,15.615C-15.102,15.73 -14.375,15.785 -13.656,15.785C-6.864,15.785 -0.875,10.829 0.206,3.912C1.401,-3.736 -3.849,-10.932 -11.497,-12.127" style="fill:rgb(249,246,233);fill-rule:nonzero;"/>
        </g>
        <g transform="matrix(4.16667,0,0,4.16667,-202.376,3235.53)">
            <path d="M0,-2.395C-0.206,-1.987 -0.527,-1.609 -1.04,-1.168C-1.691,-0.609 -2.358,-0.196 -3.024,0.063C-3.097,-0.08 -3.165,-0.222 -3.228,-0.365C-3.378,-0.71 -3.483,-1.045 -3.528,-1.385C-3.56,-1.619 -3.559,-1.858 -3.514,-2.088C-3.473,-2.305 -3.403,-2.517 -3.31,-2.716C-3.225,-2.899 -3.121,-3.068 -2.989,-3.219C-2.957,-3.256 -2.923,-3.292 -2.889,-3.328C-2.75,-3.466 -2.593,-3.584 -2.423,-3.682C-2.147,-3.816 -1.819,-3.933 -1.616,-3.963C-1.142,-4.035 -0.5,-4.011 -0.126,-3.733C0.045,-3.605 0.146,-3.431 0.178,-3.215C0.212,-2.971 0.152,-2.695 0,-2.395M-7.323,-1.267C-7.304,-1.057 -7.247,-0.867 -7.17,-0.676C-7.094,-0.485 -6.998,-0.313 -6.884,-0.179C-6.998,0.031 -7.132,0.241 -7.285,0.431C-7.437,0.623 -7.609,0.813 -7.781,0.985C-8.067,1.271 -8.373,1.501 -8.678,1.653C-8.983,1.805 -9.289,1.881 -9.575,1.881C-9.785,1.881 -9.976,1.805 -10.129,1.672C-10.281,1.539 -10.396,1.329 -10.453,1.043C-10.511,0.755 -10.491,0.393 -10.415,-0.046C-10.339,-0.485 -10.167,-1 -9.899,-1.592C-9.805,-1.783 -9.671,-2.031 -9.479,-2.317C-9.289,-2.604 -9.079,-2.89 -8.85,-3.176C-8.621,-3.462 -8.373,-3.692 -8.105,-3.882C-7.838,-4.074 -7.571,-4.168 -7.323,-4.168C-6.903,-4.168 -6.598,-4.016 -6.407,-3.73C-6.216,-3.444 -6.14,-3.081 -6.158,-2.661L-6.178,-2.718C-6.197,-2.756 -6.216,-2.794 -6.235,-2.832C-6.254,-2.871 -6.292,-2.909 -6.35,-2.928C-6.521,-3.024 -6.693,-3.004 -6.865,-2.89C-7.037,-2.775 -7.17,-2.604 -7.247,-2.374C-7.304,-2.222 -7.342,-2.05 -7.342,-1.859C-7.342,-1.668 -7.342,-1.477 -7.323,-1.267M-12.784,-10.261C-12.742,-10.478 -12.674,-10.69 -12.58,-10.889C-12.495,-11.072 -12.391,-11.24 -12.259,-11.392C-12.227,-11.429 -12.193,-11.465 -12.158,-11.5C-12.02,-11.638 -11.862,-11.757 -11.693,-11.855C-11.418,-11.989 -11.089,-12.105 -10.887,-12.135C-10.411,-12.207 -9.77,-12.184 -9.396,-11.905C-9.226,-11.778 -9.123,-11.603 -9.093,-11.388C-9.059,-11.144 -9.118,-10.868 -9.27,-10.568C-9.477,-10.16 -9.797,-9.781 -10.31,-9.341C-10.962,-8.782 -11.628,-8.369 -12.294,-8.109C-12.367,-8.252 -12.436,-8.394 -12.497,-8.537C-12.648,-8.883 -12.753,-9.218 -12.799,-9.558C-12.83,-9.791 -12.828,-10.03 -12.784,-10.261M0.004,-3.907C-0.533,-4.307 -1.396,-4.215 -1.648,-4.177C-1.973,-4.129 -2.65,-3.866 -2.947,-3.615C-3.032,-3.556 -3.115,-3.496 -3.195,-3.429C-3.284,-3.357 -3.368,-3.279 -3.448,-3.197C-3.566,-3.075 -3.674,-2.947 -3.761,-2.801C-3.88,-2.601 -3.962,-2.382 -4.04,-2.165C-4.056,-2.121 -4.069,-2.078 -4.082,-2.033C-4.085,-2.02 -4.115,-1.883 -4.118,-1.883C-4.146,-1.749 -4.157,-1.615 -4.166,-1.478C-4.177,-1.103 -4.143,-0.716 -4.049,-0.335C-3.996,-0.124 -3.933,0.091 -3.859,0.308C-4.607,0.456 -5.348,0.411 -5.99,0.171C-6.115,0.126 -6.406,-0.048 -6.561,-0.17C-6.56,-0.172 -6.56,-0.174 -6.56,-0.176C-6.559,-0.177 -6.559,-0.178 -6.559,-0.178C-6.559,-0.177 -6.56,-0.178 -6.559,-0.182C-6.559,-0.186 -6.557,-0.19 -6.556,-0.194C-6.557,-0.196 -6.558,-0.197 -6.559,-0.198C-6.151,-1.014 -5.833,-1.902 -5.848,-2.815C-5.854,-3.181 -5.917,-3.558 -6.116,-3.866C-6.354,-4.232 -6.769,-4.462 -7.198,-4.545C-7.888,-4.678 -8.614,-4.457 -9.189,-4.052C-9.765,-3.649 -10.203,-3.079 -10.562,-2.474C-10.61,-2.391 -10.658,-2.307 -10.704,-2.222C-10.528,-2.807 -10.468,-3.432 -10.527,-4.087C-10.563,-4.489 -10.658,-4.884 -10.813,-5.275C-10.968,-5.665 -11.15,-6.038 -11.349,-6.41C-11.547,-6.781 -11.743,-7.137 -11.955,-7.493C-12.04,-7.635 -12.118,-7.776 -12.193,-7.916C-11.512,-8.184 -10.832,-8.607 -10.168,-9.176C-9.633,-9.636 -9.296,-10.035 -9.076,-10.469C-8.904,-10.81 -8.837,-11.129 -8.878,-11.418C-8.917,-11.693 -9.047,-11.916 -9.267,-12.079C-9.804,-12.48 -10.667,-12.388 -10.919,-12.35C-11.243,-12.301 -11.92,-12.039 -12.217,-11.788C-12.303,-11.729 -12.386,-11.667 -12.466,-11.602C-12.554,-11.529 -12.639,-11.452 -12.718,-11.37C-12.836,-11.248 -12.943,-11.12 -13.03,-10.973C-13.149,-10.774 -13.231,-10.555 -13.31,-10.336C-13.325,-10.293 -13.34,-10.249 -13.352,-10.206C-13.355,-10.193 -13.385,-10.056 -13.388,-10.056C-13.416,-9.921 -13.427,-9.788 -13.436,-9.651C-13.447,-9.276 -13.412,-8.889 -13.318,-8.508C-13.266,-8.296 -13.203,-8.082 -13.129,-7.865C-13.878,-7.717 -14.617,-7.762 -15.26,-8C-15.405,-8.054 -15.776,-8.281 -15.894,-8.398L-16.047,-8.245C-15.906,-8.104 -15.509,-7.862 -15.336,-7.797C-14.914,-7.641 -14.454,-7.563 -13.978,-7.563C-13.675,-7.563 -13.366,-7.594 -13.056,-7.658C-13.017,-7.553 -12.975,-7.45 -12.93,-7.345L-12.42,-6.164C-12.25,-5.775 -12.096,-5.384 -11.955,-4.993C-11.562,-3.89 -11.684,-2.594 -12.143,-1.53C-12.604,-0.462 -13.423,0.409 -14.447,0.95C-15.062,1.274 -15.763,1.472 -16.55,1.543C-17.085,1.59 -17.552,1.557 -17.951,1.443C-18.351,1.33 -18.694,1.166 -18.969,0.951C-19.242,0.736 -19.461,0.47 -19.608,0.155C-19.757,-0.162 -19.847,-0.498 -19.88,-0.87C-19.926,-1.374 -19.879,-1.858 -19.727,-2.335C-19.575,-2.813 -19.359,-3.251 -19.083,-3.666C-18.806,-4.08 -18.479,-4.453 -18.104,-4.786C-17.73,-5.119 -17.353,-5.408 -16.969,-5.636C-16.585,-5.866 -16.195,-6.035 -15.8,-6.13C-15.404,-6.226 -15.047,-6.243 -14.727,-6.181C-14.407,-6.121 -14.139,-5.964 -13.923,-5.73C-13.707,-5.495 -13.586,-5.146 -13.546,-4.701C-13.519,-4.388 -13.551,-4.086 -13.644,-3.779C-13.735,-3.471 -13.873,-3.174 -14.044,-2.904C-14.215,-2.634 -14.416,-2.376 -14.634,-2.132C-14.852,-1.888 -15.071,-1.674 -15.295,-1.49C-15.561,-1.286 -15.83,-1.112 -16.116,-0.967C-16.402,-0.822 -16.676,-0.692 -16.951,-0.592C-17.227,-0.493 -17.489,-0.424 -17.741,-0.387C-17.992,-0.35 -18.215,-0.33 -18.41,-0.342C-18.456,-0.353 -18.484,-0.335 -18.497,-0.304C-18.509,-0.274 -18.492,-0.245 -18.446,-0.234C-18.246,-0.177 -18.02,-0.153 -17.751,-0.162C-17.482,-0.17 -17.201,-0.21 -16.909,-0.297C-16.617,-0.383 -16.313,-0.5 -16.013,-0.647C-15.711,-0.793 -15.413,-0.97 -15.118,-1.191C-14.865,-1.378 -14.616,-1.61 -14.386,-1.871C-14.154,-2.13 -13.94,-2.419 -13.759,-2.735C-13.578,-3.05 -13.442,-3.377 -13.354,-3.714C-13.264,-4.052 -13.233,-4.384 -13.264,-4.725C-13.308,-5.215 -13.446,-5.592 -13.681,-5.871C-13.915,-6.15 -14.216,-6.333 -14.583,-6.419C-14.95,-6.505 -15.354,-6.499 -15.796,-6.416C-16.237,-6.331 -16.687,-6.17 -17.132,-5.952C-17.576,-5.732 -18.014,-5.438 -18.432,-5.086C-18.849,-4.735 -19.218,-4.342 -19.538,-3.909C-19.859,-3.476 -20.102,-3.005 -20.266,-2.497C-20.43,-1.988 -20.487,-1.458 -20.437,-0.91C-20.399,-0.478 -20.289,-0.084 -20.092,0.273C-19.896,0.629 -19.629,0.935 -19.292,1.189C-18.954,1.443 -18.548,1.631 -18.059,1.752C-17.568,1.873 -17.011,1.913 -16.387,1.857C-15.511,1.779 -14.706,1.572 -13.958,1.235C-13.209,0.899 -12.574,0.467 -12.037,-0.06C-11.699,-0.392 -11.412,-0.755 -11.179,-1.149C-11.266,-0.887 -11.334,-0.62 -11.376,-0.346C-11.438,0.05 -11.447,0.461 -11.345,0.85C-11.242,1.239 -11.021,1.605 -10.69,1.834C-10.201,2.172 -9.546,2.167 -8.973,2.008C-7.987,1.734 -7.133,1.023 -6.679,0.106C-6.671,0.082 -6.66,0.058 -6.648,0.035C-6.469,0.168 -6.2,0.325 -6.066,0.376C-5.645,0.532 -5.185,0.61 -4.708,0.61C-4.405,0.61 -4.096,0.578 -3.786,0.515C-3.747,0.619 -3.705,0.723 -3.66,0.827L-3.149,2.009C-2.98,2.398 -2.825,2.789 -2.686,3.18C-2.292,4.283 -2.413,5.579 -2.872,6.642C-3.333,7.71 -4.153,8.582 -5.178,9.123C-5.792,9.447 -6.493,9.644 -7.28,9.715C-7.814,9.763 -8.282,9.73 -8.682,9.616C-9.081,9.501 -9.425,9.338 -9.698,9.123C-9.973,8.908 -10.19,8.643 -10.339,8.327C-10.487,8.011 -10.577,7.674 -10.61,7.303C-10.655,6.798 -10.608,6.315 -10.457,5.837C-10.306,5.36 -10.09,4.921 -9.813,4.507C-9.535,4.093 -9.21,3.719 -8.835,3.386C-8.461,3.053 -8.082,2.765 -7.698,2.537C-7.314,2.307 -6.926,2.137 -6.53,2.042C-6.135,1.947 -5.776,1.93 -5.457,1.991C-5.137,2.052 -4.868,2.208 -4.653,2.443C-4.437,2.678 -4.316,3.027 -4.276,3.472C-4.248,3.785 -4.281,4.086 -4.373,4.394C-4.466,4.702 -4.604,4.999 -4.774,5.268C-4.944,5.539 -5.146,5.795 -5.363,6.04C-5.581,6.284 -5.802,6.499 -6.024,6.683C-6.291,6.886 -6.56,7.06 -6.846,7.206C-7.133,7.351 -7.405,7.48 -7.681,7.58C-7.956,7.679 -8.22,7.748 -8.471,7.786C-8.723,7.823 -8.945,7.843 -9.141,7.831C-9.187,7.82 -9.215,7.837 -9.228,7.868C-9.239,7.899 -9.222,7.927 -9.176,7.938C-8.977,7.996 -8.749,8.02 -8.48,8.011C-8.212,8.001 -7.932,7.961 -7.64,7.876C-7.348,7.79 -7.044,7.672 -6.742,7.526C-6.441,7.379 -6.143,7.203 -5.849,6.982C-5.596,6.794 -5.347,6.562 -5.115,6.302C-4.885,6.042 -4.671,5.753 -4.489,5.438C-4.308,5.122 -4.173,4.795 -4.083,4.459C-3.993,4.121 -3.963,3.789 -3.994,3.447C-4.038,2.957 -4.177,2.58 -4.411,2.301C-4.646,2.023 -4.946,1.84 -5.313,1.753C-5.681,1.667 -6.084,1.673 -6.525,1.757C-6.968,1.842 -7.417,2.002 -7.861,2.221C-8.306,2.441 -8.744,2.735 -9.161,3.086C-9.579,3.438 -9.948,3.831 -10.269,4.263C-10.589,4.697 -10.831,5.167 -10.995,5.676C-11.159,6.185 -11.217,6.714 -11.168,7.263C-11.129,7.694 -11.019,8.088 -10.822,8.445C-10.626,8.802 -10.358,9.107 -10.021,9.362C-9.685,9.616 -9.278,9.804 -8.788,9.924C-8.299,10.045 -7.741,10.085 -7.117,10.03C-6.241,9.951 -5.437,9.745 -4.687,9.408C-3.939,9.071 -3.305,8.64 -2.768,8.113C-2.23,7.585 -1.821,6.98 -1.553,6.297C-1.285,5.615 -1.187,4.873 -1.257,4.085C-1.293,3.684 -1.389,3.289 -1.543,2.898C-1.697,2.507 -1.881,2.135 -2.079,1.763C-2.276,1.392 -2.474,1.036 -2.685,0.68C-2.77,0.538 -2.849,0.397 -2.923,0.257C-2.241,-0.012 -1.562,-0.435 -0.898,-1.004C-0.363,-1.463 -0.026,-1.862 0.193,-2.297C0.366,-2.637 0.433,-2.957 0.392,-3.246C0.354,-3.521 0.223,-3.743 0.004,-3.907" style="fill:rgb(249,246,233);fill-rule:nonzero;"/>
        </g>
    </g>
</svg>
